<svg width="77" height="21" viewBox="0 0 77 21" fill="none" xmlns="http://www.w3.org/2000/svg">
<path d="M3.01136 17V5.36364H7.67045C8.52652 5.36364 9.24053 5.49053 9.8125 5.74432C10.3845 5.99811 10.8144 6.35038 11.1023 6.80114C11.3902 7.24811 11.5341 7.76326 11.5341 8.34659C11.5341 8.80114 11.4432 9.20076 11.2614 9.54545C11.0795 9.88636 10.8295 10.1667 10.5114 10.3864C10.197 10.6023 9.83712 10.7557 9.43182 10.8466V10.9602C9.875 10.9792 10.2898 11.1042 10.6761 11.3352C11.0663 11.5663 11.3826 11.8902 11.625 12.3068C11.8674 12.7197 11.9886 13.2121 11.9886 13.7841C11.9886 14.4015 11.8352 14.9527 11.5284 15.4375C11.2254 15.9186 10.7765 16.2992 10.1818 16.5795C9.58712 16.8598 8.85417 17 7.98295 17H3.01136ZM5.47159 14.9886H7.47727C8.16288 14.9886 8.66288 14.858 8.97727 14.5966C9.29167 14.3314 9.44886 13.9792 9.44886 13.5398C9.44886 13.2178 9.37121 12.9337 9.21591 12.6875C9.06061 12.4413 8.83902 12.2481 8.55114 12.108C8.26705 11.9678 7.92803 11.8977 7.53409 11.8977H5.47159V14.9886ZM5.47159 10.233H7.29545C7.63258 10.233 7.93182 10.1742 8.19318 10.0568C8.45833 9.93561 8.66667 9.76515 8.81818 9.54545C8.97348 9.32576 9.05114 9.0625 9.05114 8.75568C9.05114 8.33523 8.90152 7.99621 8.60227 7.73864C8.30682 7.48106 7.88636 7.35227 7.34091 7.35227H5.47159V10.233ZM15.0384 20.2727C14.7315 20.2727 14.4437 20.2481 14.1747 20.1989C13.9096 20.1534 13.6899 20.0947 13.5156 20.0227L14.0611 18.2159C14.3452 18.303 14.6009 18.3504 14.8281 18.358C15.0592 18.3655 15.258 18.3125 15.4247 18.1989C15.5952 18.0852 15.7334 17.892 15.8395 17.6193L15.9815 17.25L12.8509 8.27273H15.3963L17.2031 14.6818H17.294L19.1179 8.27273H21.6804L18.2884 17.9432C18.1255 18.4129 17.9039 18.822 17.6236 19.1705C17.3471 19.5227 16.9967 19.7936 16.5724 19.983C16.1482 20.1761 15.6368 20.2727 15.0384 20.2727ZM27.5611 8.27273V10.0909H22.3054V8.27273H27.5611ZM23.4986 6.18182H25.919V14.3182C25.919 14.5417 25.9531 14.7159 26.0213 14.8409C26.0895 14.9621 26.1842 15.0473 26.3054 15.0966C26.4304 15.1458 26.5743 15.1705 26.7372 15.1705C26.8509 15.1705 26.9645 15.161 27.0781 15.142C27.1918 15.1193 27.2789 15.1023 27.3395 15.0909L27.7202 16.892C27.599 16.9299 27.4285 16.9735 27.2088 17.0227C26.9891 17.0758 26.7221 17.108 26.4077 17.1193C25.8243 17.142 25.313 17.0644 24.8736 16.8864C24.438 16.7083 24.099 16.4318 23.8565 16.0568C23.6141 15.6818 23.4948 15.2083 23.4986 14.6364V6.18182ZM33.0213 17.1705C32.1236 17.1705 31.3509 16.9886 30.7031 16.625C30.0592 16.2576 29.563 15.7386 29.2145 15.0682C28.866 14.3939 28.6918 13.5966 28.6918 12.6761C28.6918 11.7784 28.866 10.9905 29.2145 10.3125C29.563 9.63447 30.0535 9.10606 30.6861 8.72727C31.3224 8.34848 32.0687 8.15909 32.9247 8.15909C33.5005 8.15909 34.0365 8.25189 34.5327 8.4375C35.0327 8.61932 35.4683 8.89394 35.8395 9.26136C36.2145 9.62879 36.5062 10.0909 36.7145 10.6477C36.9228 11.2008 37.027 11.8485 37.027 12.5909V13.2557H29.6577V11.7557H34.7486C34.7486 11.4072 34.6728 11.0985 34.5213 10.8295C34.3698 10.5606 34.1596 10.3504 33.8906 10.1989C33.6255 10.0436 33.3168 9.96591 32.9645 9.96591C32.5971 9.96591 32.2713 10.0511 31.9872 10.2216C31.7069 10.3883 31.4872 10.6136 31.3281 10.8977C31.169 11.178 31.0876 11.4905 31.0838 11.8352V13.2614C31.0838 13.6932 31.1634 14.0663 31.3224 14.3807C31.4853 14.6951 31.7145 14.9375 32.0099 15.108C32.3054 15.2784 32.6558 15.3636 33.0611 15.3636C33.33 15.3636 33.5762 15.3258 33.7997 15.25C34.0232 15.1742 34.2145 15.0606 34.3736 14.9091C34.5327 14.7576 34.6539 14.572 34.7372 14.3523L36.9759 14.5C36.8622 15.0379 36.6293 15.5076 36.277 15.9091C35.9285 16.3068 35.4777 16.6174 34.9247 16.8409C34.3755 17.0606 33.741 17.1705 33.0213 17.1705ZM37.3963 7.39205V5.36364H46.9531V7.39205H43.3906V17H40.9588V7.39205H37.3963ZM51.1591 17.1705C50.2765 17.1705 49.5133 16.983 48.8693 16.608C48.2292 16.2292 47.7348 15.7027 47.3864 15.0284C47.0379 14.3504 46.8636 13.5644 46.8636 12.6705C46.8636 11.7689 47.0379 10.9811 47.3864 10.3068C47.7348 9.62879 48.2292 9.10227 48.8693 8.72727C49.5133 8.34848 50.2765 8.15909 51.1591 8.15909C52.0417 8.15909 52.803 8.34848 53.4432 8.72727C54.0871 9.10227 54.5833 9.62879 54.9318 10.3068C55.2803 10.9811 55.4545 11.7689 55.4545 12.6705C55.4545 13.5644 55.2803 14.3504 54.9318 15.0284C54.5833 15.7027 54.0871 16.2292 53.4432 16.608C52.803 16.983 52.0417 17.1705 51.1591 17.1705ZM51.1705 15.2955C51.572 15.2955 51.9072 15.1818 52.1761 14.9545C52.4451 14.7235 52.6477 14.4091 52.7841 14.0114C52.9242 13.6136 52.9943 13.161 52.9943 12.6534C52.9943 12.1458 52.9242 11.6932 52.7841 11.2955C52.6477 10.8977 52.4451 10.5833 52.1761 10.3523C51.9072 10.1212 51.572 10.0057 51.1705 10.0057C50.7652 10.0057 50.4242 10.1212 50.1477 10.3523C49.875 10.5833 49.6686 10.8977 49.5284 11.2955C49.392 11.6932 49.3239 12.1458 49.3239 12.6534C49.3239 13.161 49.392 13.6136 49.5284 14.0114C49.6686 14.4091 49.875 14.7235 50.1477 14.9545C50.4242 15.1818 50.7652 15.2955 51.1705 15.2955ZM60.2443 17.142C59.5814 17.142 58.9811 16.9716 58.4432 16.6307C57.9091 16.286 57.4848 15.7803 57.1705 15.1136C56.8598 14.4432 56.7045 13.6212 56.7045 12.6477C56.7045 11.6477 56.8655 10.8163 57.1875 10.1534C57.5095 9.48674 57.9375 8.98864 58.4716 8.65909C59.0095 8.32576 59.5985 8.15909 60.2386 8.15909C60.7273 8.15909 61.1345 8.24242 61.4602 8.40909C61.7898 8.57197 62.0549 8.77652 62.2557 9.02273C62.4602 9.26515 62.6155 9.50379 62.7216 9.73864H62.7955V5.36364H65.2102V17H62.8239V15.6023H62.7216C62.608 15.8447 62.447 16.0852 62.2386 16.3239C62.0341 16.5587 61.767 16.7538 61.4375 16.9091C61.1117 17.0644 60.714 17.142 60.2443 17.142ZM61.0114 15.2159C61.4015 15.2159 61.7311 15.1098 62 14.8977C62.2727 14.6818 62.4811 14.3807 62.625 13.9943C62.7727 13.608 62.8466 13.1553 62.8466 12.6364C62.8466 12.1174 62.7746 11.6667 62.6307 11.2841C62.4867 10.9015 62.2784 10.6061 62.0057 10.3977C61.733 10.1894 61.4015 10.0852 61.0114 10.0852C60.6136 10.0852 60.2784 10.1932 60.0057 10.4091C59.733 10.625 59.5265 10.9242 59.3864 11.3068C59.2462 11.6894 59.1761 12.1326 59.1761 12.6364C59.1761 13.1439 59.2462 13.5928 59.3864 13.983C59.5303 14.3693 59.7367 14.6723 60.0057 14.892C60.2784 15.108 60.6136 15.2159 61.0114 15.2159ZM71.1435 17.1705C70.2609 17.1705 69.4976 16.983 68.8537 16.608C68.2135 16.2292 67.7192 15.7027 67.3707 15.0284C67.0223 14.3504 66.848 13.5644 66.848 12.6705C66.848 11.7689 67.0223 10.9811 67.3707 10.3068C67.7192 9.62879 68.2135 9.10227 68.8537 8.72727C69.4976 8.34848 70.2609 8.15909 71.1435 8.15909C72.026 8.15909 72.7874 8.34848 73.4276 8.72727C74.0715 9.10227 74.5677 9.62879 74.9162 10.3068C75.2647 10.9811 75.4389 11.7689 75.4389 12.6705C75.4389 13.5644 75.2647 14.3504 74.9162 15.0284C74.5677 15.7027 74.0715 16.2292 73.4276 16.608C72.7874 16.983 72.026 17.1705 71.1435 17.1705ZM71.1548 15.2955C71.5563 15.2955 71.8916 15.1818 72.1605 14.9545C72.4295 14.7235 72.6321 14.4091 72.7685 14.0114C72.9086 13.6136 72.9787 13.161 72.9787 12.6534C72.9787 12.1458 72.9086 11.6932 72.7685 11.2955C72.6321 10.8977 72.4295 10.5833 72.1605 10.3523C71.8916 10.1212 71.5563 10.0057 71.1548 10.0057C70.7495 10.0057 70.4086 10.1212 70.1321 10.3523C69.8594 10.5833 69.6529 10.8977 69.5128 11.2955C69.3764 11.6932 69.3082 12.1458 69.3082 12.6534C69.3082 13.161 69.3764 13.6136 69.5128 14.0114C69.6529 14.4091 69.8594 14.7235 70.1321 14.9545C70.4086 15.1818 70.7495 15.2955 71.1548 15.2955Z" fill="#FFD6BF"/>
<path d="M1.01136 15V3.36364H5.67045C6.52652 3.36364 7.24053 3.49053 7.8125 3.74432C8.38447 3.99811 8.81439 4.35038 9.10227 4.80114C9.39015 5.24811 9.53409 5.76326 9.53409 6.34659C9.53409 6.80114 9.44318 7.20076 9.26136 7.54545C9.07955 7.88636 8.82955 8.16667 8.51136 8.38636C8.19697 8.60227 7.83712 8.75568 7.43182 8.84659V8.96023C7.875 8.97917 8.28977 9.10417 8.67614 9.33523C9.06629 9.56629 9.38258 9.89015 9.625 10.3068C9.86742 10.7197 9.98864 11.2121 9.98864 11.7841C9.98864 12.4015 9.83523 12.9527 9.52841 13.4375C9.22538 13.9186 8.77652 14.2992 8.18182 14.5795C7.58712 14.8598 6.85417 15 5.98295 15H1.01136ZM3.47159 12.9886H5.47727C6.16288 12.9886 6.66288 12.858 6.97727 12.5966C7.29167 12.3314 7.44886 11.9792 7.44886 11.5398C7.44886 11.2178 7.37121 10.9337 7.21591 10.6875C7.06061 10.4413 6.83902 10.2481 6.55114 10.108C6.26705 9.9678 5.92803 9.89773 5.53409 9.89773H3.47159V12.9886ZM3.47159 8.23295H5.29545C5.63258 8.23295 5.93182 8.17424 6.19318 8.05682C6.45833 7.93561 6.66667 7.76515 6.81818 7.54545C6.97348 7.32576 7.05114 7.0625 7.05114 6.75568C7.05114 6.33523 6.90152 5.99621 6.60227 5.73864C6.30682 5.48106 5.88636 5.35227 5.34091 5.35227H3.47159V8.23295ZM13.0384 18.2727C12.7315 18.2727 12.4437 18.2481 12.1747 18.1989C11.9096 18.1534 11.6899 18.0947 11.5156 18.0227L12.0611 16.2159C12.3452 16.303 12.6009 16.3504 12.8281 16.358C13.0592 16.3655 13.258 16.3125 13.4247 16.1989C13.5952 16.0852 13.7334 15.892 13.8395 15.6193L13.9815 15.25L10.8509 6.27273H13.3963L15.2031 12.6818H15.294L17.1179 6.27273H19.6804L16.2884 15.9432C16.1255 16.4129 15.9039 16.822 15.6236 17.1705C15.3471 17.5227 14.9967 17.7936 14.5724 17.983C14.1482 18.1761 13.6368 18.2727 13.0384 18.2727ZM25.5611 6.27273V8.09091H20.3054V6.27273H25.5611ZM21.4986 4.18182H23.919V12.3182C23.919 12.5417 23.9531 12.7159 24.0213 12.8409C24.0895 12.9621 24.1842 13.0473 24.3054 13.0966C24.4304 13.1458 24.5743 13.1705 24.7372 13.1705C24.8509 13.1705 24.9645 13.161 25.0781 13.142C25.1918 13.1193 25.2789 13.1023 25.3395 13.0909L25.7202 14.892C25.599 14.9299 25.4285 14.9735 25.2088 15.0227C24.9891 15.0758 24.7221 15.108 24.4077 15.1193C23.8243 15.142 23.313 15.0644 22.8736 14.8864C22.438 14.7083 22.099 14.4318 21.8565 14.0568C21.6141 13.6818 21.4948 13.2083 21.4986 12.6364V4.18182ZM31.0213 15.1705C30.1236 15.1705 29.3509 14.9886 28.7031 14.625C28.0592 14.2576 27.563 13.7386 27.2145 13.0682C26.866 12.3939 26.6918 11.5966 26.6918 10.6761C26.6918 9.77841 26.866 8.99053 27.2145 8.3125C27.563 7.63447 28.0535 7.10606 28.6861 6.72727C29.3224 6.34848 30.0687 6.15909 30.9247 6.15909C31.5005 6.15909 32.0365 6.25189 32.5327 6.4375C33.0327 6.61932 33.4683 6.89394 33.8395 7.26136C34.2145 7.62879 34.5062 8.09091 34.7145 8.64773C34.9228 9.20076 35.027 9.84848 35.027 10.5909V11.2557H27.6577V9.75568H32.7486C32.7486 9.4072 32.6728 9.09848 32.5213 8.82955C32.3698 8.56061 32.1596 8.35038 31.8906 8.19886C31.6255 8.04356 31.3168 7.96591 30.9645 7.96591C30.5971 7.96591 30.2713 8.05114 29.9872 8.22159C29.7069 8.38826 29.4872 8.61364 29.3281 8.89773C29.169 9.17803 29.0876 9.49053 29.0838 9.83523V11.2614C29.0838 11.6932 29.1634 12.0663 29.3224 12.3807C29.4853 12.6951 29.7145 12.9375 30.0099 13.108C30.3054 13.2784 30.6558 13.3636 31.0611 13.3636C31.33 13.3636 31.5762 13.3258 31.7997 13.25C32.0232 13.1742 32.2145 13.0606 32.3736 12.9091C32.5327 12.7576 32.6539 12.572 32.7372 12.3523L34.9759 12.5C34.8622 13.0379 34.6293 13.5076 34.277 13.9091C33.9285 14.3068 33.4777 14.6174 32.9247 14.8409C32.3755 15.0606 31.741 15.1705 31.0213 15.1705ZM35.3963 5.39205V3.36364H44.9531V5.39205H41.3906V15H38.9588V5.39205H35.3963ZM49.1591 15.1705C48.2765 15.1705 47.5133 14.983 46.8693 14.608C46.2292 14.2292 45.7348 13.7027 45.3864 13.0284C45.0379 12.3504 44.8636 11.5644 44.8636 10.6705C44.8636 9.76894 45.0379 8.98106 45.3864 8.30682C45.7348 7.62879 46.2292 7.10227 46.8693 6.72727C47.5133 6.34848 48.2765 6.15909 49.1591 6.15909C50.0417 6.15909 50.803 6.34848 51.4432 6.72727C52.0871 7.10227 52.5833 7.62879 52.9318 8.30682C53.2803 8.98106 53.4545 9.76894 53.4545 10.6705C53.4545 11.5644 53.2803 12.3504 52.9318 13.0284C52.5833 13.7027 52.0871 14.2292 51.4432 14.608C50.803 14.983 50.0417 15.1705 49.1591 15.1705ZM49.1705 13.2955C49.572 13.2955 49.9072 13.1818 50.1761 12.9545C50.4451 12.7235 50.6477 12.4091 50.7841 12.0114C50.9242 11.6136 50.9943 11.161 50.9943 10.6534C50.9943 10.1458 50.9242 9.69318 50.7841 9.29545C50.6477 8.89773 50.4451 8.58333 50.1761 8.35227C49.9072 8.12121 49.572 8.00568 49.1705 8.00568C48.7652 8.00568 48.4242 8.12121 48.1477 8.35227C47.875 8.58333 47.6686 8.89773 47.5284 9.29545C47.392 9.69318 47.3239 10.1458 47.3239 10.6534C47.3239 11.161 47.392 11.6136 47.5284 12.0114C47.6686 12.4091 47.875 12.7235 48.1477 12.9545C48.4242 13.1818 48.7652 13.2955 49.1705 13.2955ZM58.2443 15.142C57.5814 15.142 56.9811 14.9716 56.4432 14.6307C55.9091 14.286 55.4848 13.7803 55.1705 13.1136C54.8598 12.4432 54.7045 11.6212 54.7045 10.6477C54.7045 9.64773 54.8655 8.81629 55.1875 8.15341C55.5095 7.48674 55.9375 6.98864 56.4716 6.65909C57.0095 6.32576 57.5985 6.15909 58.2386 6.15909C58.7273 6.15909 59.1345 6.24242 59.4602 6.40909C59.7898 6.57197 60.0549 6.77652 60.2557 7.02273C60.4602 7.26515 60.6155 7.50379 60.7216 7.73864H60.7955V3.36364H63.2102V15H60.8239V13.6023H60.7216C60.608 13.8447 60.447 14.0852 60.2386 14.3239C60.0341 14.5587 59.767 14.7538 59.4375 14.9091C59.1117 15.0644 58.714 15.142 58.2443 15.142ZM59.0114 13.2159C59.4015 13.2159 59.7311 13.1098 60 12.8977C60.2727 12.6818 60.4811 12.3807 60.625 11.9943C60.7727 11.608 60.8466 11.1553 60.8466 10.6364C60.8466 10.1174 60.7746 9.66667 60.6307 9.28409C60.4867 8.90151 60.2784 8.60606 60.0057 8.39773C59.733 8.18939 59.4015 8.08523 59.0114 8.08523C58.6136 8.08523 58.2784 8.19318 58.0057 8.40909C57.733 8.625 57.5265 8.92424 57.3864 9.30682C57.2462 9.68939 57.1761 10.1326 57.1761 10.6364C57.1761 11.1439 57.2462 11.5928 57.3864 11.983C57.5303 12.3693 57.7367 12.6723 58.0057 12.892C58.2784 13.108 58.6136 13.2159 59.0114 13.2159ZM69.1435 15.1705C68.2609 15.1705 67.4976 14.983 66.8537 14.608C66.2135 14.2292 65.7192 13.7027 65.3707 13.0284C65.0223 12.3504 64.848 11.5644 64.848 10.6705C64.848 9.76894 65.0223 8.98106 65.3707 8.30682C65.7192 7.62879 66.2135 7.10227 66.8537 6.72727C67.4976 6.34848 68.2609 6.15909 69.1435 6.15909C70.026 6.15909 70.7874 6.34848 71.4276 6.72727C72.0715 7.10227 72.5677 7.62879 72.9162 8.30682C73.2647 8.98106 73.4389 9.76894 73.4389 10.6705C73.4389 11.5644 73.2647 12.3504 72.9162 13.0284C72.5677 13.7027 72.0715 14.2292 71.4276 14.608C70.7874 14.983 70.026 15.1705 69.1435 15.1705ZM69.1548 13.2955C69.5563 13.2955 69.8916 13.1818 70.1605 12.9545C70.4295 12.7235 70.6321 12.4091 70.7685 12.0114C70.9086 11.6136 70.9787 11.161 70.9787 10.6534C70.9787 10.1458 70.9086 9.69318 70.7685 9.29545C70.6321 8.89773 70.4295 8.58333 70.1605 8.35227C69.8916 8.12121 69.5563 8.00568 69.1548 8.00568C68.7495 8.00568 68.4086 8.12121 68.1321 8.35227C67.8594 8.58333 67.6529 8.89773 67.5128 9.29545C67.3764 9.69318 67.3082 10.1458 67.3082 10.6534C67.3082 11.161 67.3764 11.6136 67.5128 12.0114C67.6529 12.4091 67.8594 12.7235 68.1321 12.9545C68.4086 13.1818 68.7495 13.2955 69.1548 13.2955Z" fill="black"/>
</svg>
